HIERARCHY
ROOT SimulationBone
{
	OFFSET 0.000000 0.000000 0.000000
	CHANNELS 6 Xposition Yposition Zposition Zrotation Yrotation Xrotation 
	JOINT Hips
	{
		OFFSET 0.000000 0.000000 0.000000
		CHANNELS 6 Xposition Yposition Zposition Zrotation Yrotation Xrotation 
		JOINT LeftUpLeg
		{
			OFFSET 0.103458 1.857820 10.548502
			CHANNELS 3 Zrotation Yrotation Xrotation
			JOINT LeftLeg
			{
				OFFSET 43.500000 -0.000023 -0.000011
				CHANNELS 3 Zrotation Yrotation Xrotation
				JOINT LeftFoot
				{
					OFFSET 42.372192 0.000038 0.000002
					CHANNELS 3 Zrotation Yrotation Xrotation
					JOINT LeftToe
					{
						OFFSET 17.299992 -0.000004 0.000006
						CHANNELS 3 Zrotation Yrotation Xrotation
						End Site
						{
							OFFSET 0.000000 0.000000 0.000000
						}
					}
				}
			}
		}
		JOINT RightUpLeg
		{
			OFFSET 0.103461 1.857814 -10.548508
			CHANNELS 3 Zrotation Yrotation Xrotation
			JOINT RightLeg
			{
				OFFSET 43.500042 -0.000015 0.000008
				CHANNELS 3 Zrotation Yrotation Xrotation
				JOINT RightFoot
				{
					OFFSET 42.372253 0.000008 0.000006
					CHANNELS 3 Zrotation Yrotation Xrotation
					JOINT RightToe
					{
						OFFSET 17.299973 -0.000014 0.000011
						CHANNELS 3 Zrotation Yrotation Xrotation
						End Site
						{
							OFFSET 0.000000 0.000000 0.000000
						}
					}
				}
			}
		}
		JOINT Spine
		{
			OFFSET 6.901966 -2.603737 -0.000007
			CHANNELS 3 Zrotation Yrotation Xrotation
			JOINT Spine1
			{
				OFFSET 12.588102 0.000017 0.000001
				CHANNELS 3 Zrotation Yrotation Xrotation
				JOINT Spine2
				{
					OFFSET 12.343197 -0.000013 0.000000
					CHANNELS 3 Zrotation Yrotation Xrotation
					JOINT Neck
					{
						OFFSET 25.832905 -0.000008 0.000000
						CHANNELS 3 Zrotation Yrotation Xrotation
						JOINT Head
						{
							OFFSET 11.766610 0.000009 -0.000002
							CHANNELS 3 Zrotation Yrotation Xrotation
							End Site
							{
								OFFSET 0.000000 0.000000 0.000000
							}
						}
					}
					JOINT LeftShoulder
					{
						OFFSET 19.745903 -1.480377 6.000115
						CHANNELS 3 Zrotation Yrotation Xrotation
						JOINT LeftArm
						{
							OFFSET 11.284125 -0.000014 -0.000024
							CHANNELS 3 Zrotation Yrotation Xrotation
							JOINT LeftForeArm
							{
								OFFSET 33.000046 -0.000012 0.000029
								CHANNELS 3 Zrotation Yrotation Xrotation
								JOINT LeftHand
								{
									OFFSET 25.199989 0.000034 0.000012
									CHANNELS 3 Zrotation Yrotation Xrotation
									End Site
									{
										OFFSET 0.000000 0.000000 0.000000
									}
								}
							}
						}
					}
					JOINT RightShoulder
					{
						OFFSET 19.746098 -1.480362 -6.000071
						CHANNELS 3 Zrotation Yrotation Xrotation
						JOINT RightArm
						{
							OFFSET 11.284137 -0.000006 -0.000008
							CHANNELS 3 Zrotation Yrotation Xrotation
							JOINT RightForeArm
							{
								OFFSET 33.000095 0.000017 0.000000
								CHANNELS 3 Zrotation Yrotation Xrotation
								JOINT RightHand
								{
									OFFSET 25.199778 0.000144 0.000423
									CHANNELS 3 Zrotation Yrotation Xrotation
									End Site
									{
										OFFSET 0.000000 0.000000 0.000000
									}
								}
							}
						}
					}
				}
			}
		}
	}
}
MOTION
Frames: 5
Frame Time: 0.016667
-299.811345 0.000000 -539.781033 0.000000 54.001074 0.000000 -1.515950 90.084648 -1.737653 91.243506 -3.968726 -178.293017 -177.452467 -4.362595 173.595801 -13.280473 -2.406992 -5.987536 75.630766 1.215818 -11.089798 21.454548 0.003099 0.000001 154.669005 9.022790 -163.836294 -41.810162 4.757370 16.982034 78.545829 -11.812980 0.888618 21.454560 -0.003107 -0.000018 8.119606 -0.509342 0.016507 6.226599 -1.018878 0.005703 5.908432 -1.018694 0.011870 -0.057850 -7.493469 -14.762515 -11.111672 18.027031 -21.853819 -151.555134 -76.169308 -30.552585 -6.863102 49.788598 24.224272 -94.408711 -4.033942 2.783065 5.147846 -1.143783 77.818079 -152.963506 67.285010 29.305100 -0.966122 -51.261112 -15.359198 -89.541279 5.942023 -2.741884 13.566892 -7.124880 -66.706290 
-299.487468 0.000000 -540.403875 0.000000 52.026443 0.000000 -1.680654 89.944614 -1.678931 91.108251 -3.930147 -179.278318 -176.424450 -4.029446 172.798752 -13.041863 -2.384911 -7.212542 76.208667 1.973577 -11.726207 21.454551 0.003094 0.000001 154.492937 8.465725 -163.042995 -39.599413 4.432685 17.821230 79.359621 -12.396958 0.754301 21.454560 -0.003107 -0.000018 8.167375 -0.577440 0.072058 6.321662 -1.157982 0.112594 6.003488 -1.157149 0.119596 -0.565208 -7.263840 -14.560978 -11.155102 18.052985 -21.648139 -151.017526 -75.965909 -31.107134 -6.594690 49.778709 23.520007 -93.721748 -3.964384 2.747488 1.945028 -1.355892 71.639099 -153.138903 67.369455 29.121336 -1.928711 -50.752367 -14.613351 -88.883818 6.494976 -2.751624 13.989415 -7.138004 -67.285374 
-299.120358 0.000000 -541.008164 0.000000 50.030966 0.000000 -1.806516 89.763847 -1.626171 91.016825 -3.898634 179.659325 -175.464855 -3.723689 171.526472 -13.127879 -2.394586 -8.164855 76.890778 2.559518 -12.334878 21.454555 0.003087 0.000001 154.429566 7.735591 -162.157379 -37.577261 4.073320 18.386909 80.158669 -12.795800 0.592262 21.454560 -0.003108 -0.000017 8.204999 -0.651981 0.142032 6.396142 -1.310826 0.247962 6.077962 -1.309171 0.255879 -0.905081 -7.036319 -14.341512 -11.146006 18.002936 -21.383032 -150.952219 -75.706284 -31.181280 -6.078139 49.752378 22.844863 -92.895797 -3.941474 2.709312 -0.286788 -1.463204 65.571905 -153.423000 67.622100 28.820815 -2.751422 -50.569265 -13.974155 -88.110764 7.127118 -2.761098 14.255746 -7.021122 -67.776997 
-298.711265 0.000000 -541.593993 0.000000 48.012679 0.000000 -1.904996 89.563962 -1.585302 90.895017 -3.870615 178.635408 -174.667505 -3.440074 169.939820 -13.517023 -2.420237 -8.872713 77.585842 2.972704 -12.964361 21.454556 0.003090 0.000001 154.418340 6.952404 -161.197466 -35.752302 3.818447 18.776187 80.600186 -13.114659 0.275589 21.454558 -0.003109 -0.000017 8.210380 -0.727084 0.214250 6.405938 -1.464912 0.388105 6.087743 -1.462405 0.396950 -0.977269 -6.813073 -14.123539 -11.242992 17.849770 -21.097703 -151.539229 -75.470564 -30.588322 -5.276765 49.799349 22.303574 -91.978426 -4.033649 2.674840 -1.528978 -1.567522 60.409534 -153.664038 67.929975 28.563685 -3.418166 -50.603389 -13.434459 -87.277390 7.781214 -2.769569 14.436673 -6.855716 -68.060747 
-298.261595 0.000000 -542.161729 0.000000 45.970741 0.000000 -1.969600 89.344994 -1.524052 90.749080 -3.820467 177.799438 -174.076674 -3.199104 168.445319 -14.249712 -2.408880 -9.470383 78.336388 3.308285 -13.642952 21.454553 0.003098 0.000001 154.574708 6.132296 -160.110330 -34.005134 3.656597 19.071288 80.848702 -13.294891 0.338283 21.454558 -0.003109 -0.000017 8.190108 -0.789535 0.262826 6.364614 -1.592321 0.482043 6.046401 -1.589241 0.491658 -0.966907 -6.668448 -13.887411 -11.286010 17.686623 -20.791301 -152.146696 -75.164568 -29.975895 -4.411560 49.889436 21.914924 -91.024523 -4.270198 2.649188 -1.680593 -1.491476 56.569975 -153.596979 68.241080 28.625095 -4.014629 -50.842476 -12.995319 -86.424473 8.438740 -2.778019 14.507960 -6.666616 -68.216985 
